<svg xmlns="http://www.w3.org/2000/svg" fill="none" viewBox="0 0 24 24" id="ChartMaximum"><path fill="" fill-opacity=".2" d="M19 2H5C3.34315 2 2 3.34315 2 5V19C2 20.6569 3.34315 22 5 22H19C20.6569 22 22 20.6569 22 19V5C22 3.34315 20.6569 2 19 2Z" class="color01caa1 svgShape"></path><path fill="#5cd6ff" d="M19 16.29V18C19 18.55 18.55 19 18 19C17.45 19 17 18.55 17 18V16.29C17 11.26 14.71 7 12 7C9.29 7 7 11.25 7 16.29V18C7 18.55 6.55 19 6 19C5.45 19 5 18.55 5 18V16.29C5 9.96 8.08 5 12 5C15.92 5 19 9.96 19 16.29Z" class="color01caa1 svgShape"></path></svg>