<svg xmlns="http://www.w3.org/2000/svg" fill="none" viewBox="0 0 24 24" id="ChartMinimum"><path fill="" d="M19 2H5C3.34315 2 2 3.34315 2 5V19C2 20.6569 3.34315 22 5 22H19C20.6569 22 22 20.6569 22 19V5C22 3.34315 20.6569 2 19 2Z" class="colore6e6e6 svgShape"></path><path fill="#5cd6ff" d="M19 6V7.71C19 14.04 15.92 19 12 19C8.08 19 5 14.04 5 7.71V6C5 5.45 5.45 5 6 5C6.55 5 7 5.45 7 6V7.71C7 12.74 9.29 17 12 17C14.71 17 17 12.75 17 7.71V6C17 5.45 17.45 5 18 5C18.55 5 19 5.45 19 6V6Z" class="color000000 svgShape"></path></svg>