<svg xmlns="http://www.w3.org/2000/svg" enable-background="new 0 0 64 64" viewBox="0 0 64 64" id="route-location"><path fill="#5cd6ff" d="M61.96,13.16h-7.3c0.45-1.7,0.24-3.52-0.63-5.14c-1.26-2.32-3.59-3.71-6.22-3.71c-2.64,0-4.98,1.39-6.23,3.71
	c-0.88,1.63-1.08,3.44-0.63,5.14h-7.31c-6.25,0-11.34,5.09-11.34,11.35c0,3.02,1.18,5.87,3.33,8.01c2.14,2.14,4.98,3.31,8.01,3.31
	h14.82c4,0,7.25,3.25,7.25,7.25c0,1.87-0.72,3.62-2.04,4.94c-1.31,1.31-3.05,2.04-4.91,2.04h-35.2c0.92-2.01,0.86-4.29-0.23-6.28
	c-1.26-2.32-3.58-3.71-6.22-3.71c-2.63,0-4.97,1.39-6.22,3.71c-1.26,2.32-1.14,5.02,0.3,7.24l5.52,8.46
	c0.09,0.14,0.24,0.21,0.4,0.21c0.17,0,0.31-0.08,0.41-0.21l3.57-5.46c0.21,0.07,0.43,0.12,0.67,0.12h37c2.96,0,5.73-1.15,7.79-3.23
	c2.1-2.09,3.25-4.86,3.25-7.82c0-6.25-5.09-11.33-11.34-11.33H33.63c-1.94,0-3.76-0.76-5.13-2.13c-1.37-1.37-2.12-3.19-2.12-5.12
	c0-4,3.25-7.26,7.25-7.26h8.78c0.24,0,0.47-0.05,0.68-0.13l4.3,6.6c0.09,0.14,0.24,0.22,0.41,0.22c0.16,0,0.31-0.09,0.4-0.22
	l4.3-6.6c0.21,0.08,0.44,0.13,0.68,0.13h8.77c1.12,0,2.04-0.92,2.04-2.05C64,14.08,63.09,13.16,61.96,13.16z M47.81,9.43
	c1.16,0,2.11,0.95,2.11,2.11s-0.95,2.11-2.11,2.11c-1.17,0-2.11-0.95-2.11-2.11S46.63,9.43,47.81,9.43z M7.09,45.18
	c1.16,0,2.11,0.95,2.11,2.11c0,1.16-0.95,2.11-2.11,2.11s-2.11-0.95-2.11-2.11C4.99,46.13,5.93,45.18,7.09,45.18z"></path></svg>