<svg xmlns="http://www.w3.org/2000/svg" viewBox="0 0 1500 1500" id="DslrCamera"><path fill="#ff7847" d="M263.525 50.875L264.125 50.9921C264.43 52.1392 263.626 53.8897 263.159 54.958L263.014 55.2819C275.084 56.6254 286.998 52.8534 299.289 53.84C300.863 53.9663 302.373 54.4122 303.982 54.5286C312.083 55.1144 323.4 55.2996 331.356 54.8002C350.19 53.6179 362.864 57.111 372.088 73.4181L391.995 111.494C392.832 113.039 393.526 116.133 395.317 116.258L434.5 118.745C491.329 123.88 498.826 147.064 500.473 196.75L500.82 277.191C500.878 279.313 501.292 281.399 501.344 283.5L501.34 356.375C501.318 358.747 500.958 361.024 500.844 363.375L500.383 379.595C500.304 384.066 499.746 388.557 499.344 393.009C494.873 442.412 468.335 452.661 425.187 455.329L408.243 456.383L346.541 456.394C344.63 456.342 342.772 456.033 340.875 455.947L300.427 454.303L223.996 448.755C223.011 448.511 221.812 448.537 220.783 448.489L180.692 449.714L158.145 451.69C156.215 451.844 154.315 452.215 152.375 452.313L127.863 453.37L88.625 453.361C79.1604 453.018 69.542 452.055 60.1943 450.567C14.5478 443.303 12.0531 414.709 12.0905 373.522L12.5814 334.75L12.1079 178.63C12.0943 147.307 15.64 125.079 50.2278 118.256C48.5893 100.606 61.0295 91.6021 77.0479 88.7834L78.9194 88.5379C82.2967 88.4054 85.8393 88.7783 89.25 88.7622C112.225 88.6538 127.998 88.4709 128.273 116.749L162.187 116.686C163.609 116.691 168.214 117.319 169.19 117.132C171.81 116.63 183.121 100.453 184.698 98.0384L196.238 79.5C206.267 63.6462 217.137 50.7028 238.153 53.9253C240.821 54.3344 243.699 55.3735 246.375 55.3669C251.92 55.3533 258.516 52.9438 263.525 50.875Z" transform="scale(2.92969)" class="color4f518c svgShape"></path><path fill="#150811" d="M220.904 58.8238C223.476 58.6617 226.483 59.4008 229.085 59.6946C225.931 61.5759 223.401 63.9856 220.423 66.0839C218.772 66.9722 217.006 67.5083 215.228 68.0767L215.053 67.936C216.332 61.6768 211.572 60.2072 220.904 58.8238Z" transform="scale(2.92969)" class="color907ad6 svgShape"></path><path fill="#f2f8ff" d="M445.943 447.854C446.048 447.511 446.17 447.204 446.31 446.875L471.017 431.569C473.516 429.779 476.299 426.35 479.499 426.102L479.941 426.544C473.687 439.846 459.829 446.244 445.943 447.854Z" transform="scale(2.92969)" class="colorf7f2ff svgShape"></path><path fill="#bfdfff" d="M426.359 449.27L428.365 448.375C430.841 446.692 433.653 445.883 436.15 444.307L455.424 432.17C463.266 427.076 474.376 419.078 483.148 415.88C482.67 419.643 481.784 423.185 479.959 426.547L479.941 426.544L479.499 426.102C476.299 426.35 473.516 429.779 471.017 431.569L446.31 446.875C446.17 447.204 446.048 447.511 445.943 447.854C440.335 449.022 432.098 449.349 426.359 449.27Z" transform="scale(2.92969)" class="colordabfff svgShape"></path><path fill="#150811" d="M84.0141 96.147C95.891 94.9079 109.689 100.156 115.315 111.215C115.74 112.05 115.914 113.003 116.544 113.723L89.1913 115.294C80.7304 116.399 72.0474 117.795 63.5081 117.73C63.2834 106.852 63.3639 101.003 74.4438 96.6665C74.4905 96.9825 72.3895 98.5793 72.1074 99.2766C72.4659 99.4125 72.5323 99.359 72.875 99.1517C76.4484 96.9902 79.9295 96.6295 84.0141 96.147Z" transform="scale(2.92969)" class="color907ad6 svgShape"></path><path fill="#bfdfff" d="M485.226 399.245C485.191 401.658 485.09 404.038 484.627 406.413L483.148 415.88C474.376 419.078 463.266 427.076 455.424 432.17L436.15 444.307C433.653 445.883 430.841 446.692 428.365 448.375L426.359 449.214L416.209 449.815C412.091 450.511 407.868 450.458 403.71 450.49L386.029 450.51C384.879 450.378 383.709 450.54 382.562 450.312L385.5 450.189C387.801 450.353 389.869 450 392.125 450L392.438 449.438C393.837 448.838 394.509 447.133 395.809 446.38L396.095 446.226C397.693 445.763 399.385 444.599 400.951 443.912L434.75 427.274L462.926 411.772C466.419 409.799 481.186 399.91 484.287 399.711C484.786 399.679 484.834 399.545 485.226 399.245Z" transform="scale(2.92969)" class="colordabfff svgShape"></path><path fill="#ffffff" d="M416.209 449.815C416.104 449.369 416.188 449.366 416.375 448.957L450.08 429.785L469.481 416.975C472.189 415.263 474.618 413.34 477.213 411.487L481.755 408.486C482.668 407.822 483.462 406.552 484.612 406.413L483.148 415.88C474.376 419.078 463.266 427.076 455.424 432.17L436.15 444.307C433.653 445.883 430.841 446.692 428.365 448.375L426.359 449.214L416.209 449.815Z" transform="scale(2.92969)" class="colorffffff svgShape"></path><defs><linearGradient id="a" x1="433.096" x2="425.116" y1="425.397" y2="411.931" gradientUnits="userSpaceOnUse"><stop offset="0" stop-color="#a5d2ff" class="stopColorc1a5ff svgShape"></stop><stop offset="1" stop-color="#ffffff" class="stopColorffffff svgShape"></stop></linearGradient></defs><path fill="url(#a)" d="M365.043 450.507C365.338 450.035 365.236 450.231 365.467 449.729L365.625 449.377C369.259 446.756 373.273 444.627 377.128 442.344L393.194 432.542C406.647 424.151 419.716 414.95 433.55 407.2L453.703 396.377C456.463 394.918 459.295 393.665 461.974 392.05L483.303 377.833C484.288 377.133 485.307 375.693 486.375 375.315L486.538 377.352L486.399 383.943L485.627 393.887L485.226 399.245C484.834 399.545 484.786 399.679 484.287 399.711C481.186 399.91 466.419 409.799 462.926 411.772L434.75 427.274L400.951 443.912C399.385 444.599 397.693 445.763 396.095 446.226L395.809 446.38C394.509 447.133 393.837 448.838 392.438 449.438L392.125 450C389.869 450 387.801 450.353 385.5 450.189L382.562 450.312C383.709 450.54 384.879 450.378 386.029 450.544L365.043 450.507Z" transform="scale(2.92969)"></path><path fill="#bfdfff" d="M486.327 383.943L485.627 393.887C485.391 390.88 484.602 392.888 482.668 393.996L462 406.739C456.736 410.061 451.132 412.841 445.701 415.87L438.641 419.791C437.576 420.344 436.424 421.072 435.281 421.421C436.086 420.406 437.297 420.157 438.274 419.424L458.001 408.501C458.704 408.178 458.053 408.624 458.75 408.127L459.251 407.751C459.67 407.547 460.035 407.373 460.438 407.126L461.751 406.251C463.278 405.514 464.848 404.468 466.199 403.429L466.751 403.001C468.614 402.001 470.515 400.873 472.25 399.627L472.751 399.251C473.35 398.964 474.089 398.752 474.47 398.153L475 397.875C475.152 397.84 476.674 396.927 476.939 396.75L476.82 396.332C475.923 396.466 475.371 397.015 474.582 397.386C474.388 397.477 464.503 400.615 463.953 400.677L463.668 400.708C463.278 400.788 463.033 400.904 462.618 400.904L460.192 400.922C459.514 400.486 459.115 400.425 458.908 399.625L459.161 398.569L445.42 405.718L418.067 422.564C415.206 424.821 411.574 427.118 408.389 428.919L399.042 434.754C397.684 435.552 395.97 437.005 394.493 437.409C394.693 436.776 398.298 434.82 399 434.351L417.693 422.445C424.281 418.103 430.604 413.416 437.484 409.521L458.436 398.477C460.93 397.219 463.565 396.163 466 394.803L478.369 387.516C480.857 386.129 483.526 384.569 486.327 383.943Z" transform="scale(2.92969)" class="colordabfff svgShape"></path><path fill="#ffffff" d="M435.281 421.421C436.424 421.072 437.576 420.344 438.641 419.791L445.701 415.87C451.132 412.841 456.736 410.061 462 406.739L482.668 393.996C484.602 392.888 485.391 390.88 485.595 393.887L485.226 399.245C484.834 399.545 484.786 399.679 484.287 399.711C481.186 399.91 466.419 409.799 462.926 411.772L434.75 427.274L400.951 443.912C399.385 444.599 397.693 445.763 396.095 446.226C394.763 445.757 393.758 445.963 392.566 445.091C395.028 443.302 397.842 442.006 400.459 440.46L418.901 429.958C424.166 427.205 429.912 424.752 434.945 421.632L435.281 421.421Z" transform="scale(2.92969)" class="colorffffff svgShape"></path><path fill="#150811" d="M350.212 68.387C351.169 68.9573 352.01 69.5312 352.843 70.2731C354.162 71.7736 355.312 73.1381 356.132 74.9869L357.22 77.2421L365.672 91.5515C367.447 94.3061 368.848 97.2144 370.406 100.09L374.685 107.622C376.02 110.039 377.255 112.744 379.001 114.89L378.631 114.841C374.664 114.332 370.494 114.526 366.495 114.519L347.433 114.531C343.666 114.58 340.065 114.906 336.289 114.819L336.626 114.438C337.545 114.258 337.56 113.857 338.625 114.25L339.587 113.713C343.153 111.927 345.648 108.982 348.001 107.751L348.442 107.345C349.237 106.572 350.133 106.048 351 105.377C351.745 104.802 352.212 101.933 352.184 101.002C352.589 100.368 353.503 99.2881 353.609 98.578C347.343 102.718 341.105 106.392 335.435 111.404C334.004 112.668 333.178 114.375 331.201 114.671L329.969 115.616C327.908 113.107 315.842 113.787 313.029 114.131C311.737 117.171 309.172 118.147 306 118.09L305.734 117.875C304.536 117.007 258.35 117.72 252.317 117.253C248.273 116.518 246.866 114.475 242.726 115.799C239.98 116.677 237.122 117.729 234.281 118.203L233.18 118.02C234.468 116.76 234.027 116.34 234.511 114.9L232.898 114.208C238.187 113.652 243.075 112.91 248.386 113.705C262.692 115.844 267.834 112.727 279.837 105.799L296.641 96.544C297.971 95.8517 299.449 95.396 300.751 94.6801L316.407 86.7787C318.847 85.5166 321.1 83.9171 323.557 82.6759L334.759 76.8941C337.434 75.5279 348.421 68.843 350.212 68.387Z" transform="scale(2.92969)" class="color907ad6 svgShape"></path><defs><linearGradient id="b" x1="292.857" x2="292.894" y1="117.49" y2="68.458" gradientUnits="userSpaceOnUse"><stop offset="0" stop-color="#48abab" class="stopColor6148ab svgShape"></stop><stop offset="1" stop-color="#7fe3e3" class="stopColor827fe3 svgShape"></stop></linearGradient></defs><path fill="url(#b)" d="M350.212 68.387C351.169 68.9573 352.01 69.5312 352.843 70.2731L352.494 70.5897C351.384 71.621 350.973 72.9366 349.623 73.875L349.347 74.0704C346.302 76.1739 342.552 77.6231 339.206 79.2153L320.517 88.2122C316.818 89.855 312.843 91.0437 309.25 92.8775L300.14 97.4213C298.329 98.3281 296.79 99.8857 295.021 100.931C293.662 100.934 287.459 104.079 286.402 105.449L292.196 103.344C288.868 106.772 284.206 110.45 279.859 112.426C278.025 113.26 275.414 113.667 273.826 114.852L276.023 114.492C279.331 113.869 282.93 114.491 286.287 114.549L303.586 114.57C306.346 114.537 310.429 113.414 313.029 114.131C311.737 117.171 309.172 118.147 306 118.09L305.734 117.875C304.536 117.007 258.35 117.72 252.317 117.253C248.273 116.518 246.866 114.475 242.726 115.799C239.98 116.677 237.122 117.729 234.281 118.203L233.18 118.02C234.468 116.76 234.027 116.34 234.511 114.9L232.898 114.208C238.187 113.652 243.075 112.91 248.386 113.705C262.692 115.844 267.834 112.727 279.837 105.799L296.641 96.544C297.971 95.8517 299.449 95.396 300.751 94.6801L316.407 86.7787C318.847 85.5166 321.1 83.9171 323.557 82.6759L334.759 76.8941C337.434 75.5279 348.421 68.843 350.212 68.387Z" transform="scale(2.92969)"></path><path fill="#150811" d="M182.995 117.96C185.574 114.609 187.159 110.522 189.723 107.082C192.042 103.972 194.797 101.514 197.605 98.875L214.375 84.3775C212.474 85.2951 210.71 86.9237 209 88.1688L199.545 94.8393C197.253 96.6105 195.225 98.7274 192.957 100.547L205.836 82.111C210.699 75.5505 215.563 69.8065 222.787 65.739C223.172 65.5223 223.384 65.4158 223.64 65.0328L223.796 64.7512C225.779 63.9293 230.08 61.3956 232.062 60.0213C234.754 60.7054 241.324 55.5986 248.625 58.8306C252.054 60.3484 256.278 58.5407 259.984 58.4243L304.227 58.4806L304.026 58.872C302.304 60.0431 301.212 59.3363 299.339 59.3083C296.724 59.2692 283.648 66.6263 286 69.521C292.007 71.3017 302.229 59.245 306.111 58.692C311.043 58.6539 314.627 59.6235 319.378 60.1196L319.42 60.1792C329.186 61.0982 332.828 62.2629 342.082 65.0748C344.84 65.9114 347.691 66.9905 350.212 68.387C348.421 68.843 337.434 75.5279 334.759 76.8941L323.557 82.6759C321.1 83.9171 318.847 85.5166 316.407 86.7787L300.751 94.6801C299.449 95.396 297.971 95.8517 296.641 96.544L279.837 105.799C267.834 112.727 262.692 115.844 248.386 113.705C243.075 112.91 238.187 113.652 232.898 114.208L234.511 114.9C234.027 116.34 234.468 116.76 233.18 118.02L221.046 118.693C219.023 118.815 205.136 119.548 204.48 119.91C200.399 119.464 195.994 120.296 191.888 120.6L191.803 120.686C187.449 121.088 182.974 121.457 178.607 121.075C180.1 119.925 181.543 119.246 182.995 117.96Z" transform="scale(2.92969)" class="color907ad6 svgShape"></path><path fill="#ff7847" d="M260.624 78.6511L271.205 73.0448C274.067 71.6235 276.884 70.2012 280.018 69.4856L261.044 79.6247L260.97 79.5361C261.012 79.1344 261.103 79.1479 261.377 78.875L260.624 78.6511Z" transform="scale(2.92969)" class="color4f518c svgShape"></path><path fill="#5cbebe" d="M260.624 78.6511L261.377 78.875C261.103 79.1479 261.012 79.1344 260.97 79.5361L261.044 79.6247C259.706 80.8998 257.404 81.7794 255.804 82.7658L241.485 91.7176C239.054 93.1399 236.425 94.1518 234 95.5921L260.624 78.6511Z" transform="scale(2.92969)" class="color685cbe svgShape"></path><path fill="#bfdfff" d="M188.534 117.834C188.829 116.933 191.932 114.04 192.758 113.486L194.144 112.613C195.769 111.696 203.245 108.312 205.173 108.875 205.723 111.632 204.837 112.861 202.972 114.695 199.679 116.611 192.538 117.531 188.534 117.834zM319.42 60.1792C329.186 61.0982 332.828 62.2629 342.082 65.0748 339.262 66.7615 335.665 69.7151 332.276 69.6854 329.377 65.0363 331.596 67.5568 330.875 65.6783L328.875 65.4605C325.591 62.3322 320.94 61.8931 319.42 60.1792z" transform="scale(2.92969)" class="colordabfff svgShape"></path><path fill="#5cbebe" d="M317.337 61.625L318.151 61.9603C313.609 66.9662 290.019 81.0887 286.086 79.5158C285.728 79.2786 285.296 79.2811 284.875 79.218C287.334 74.189 304.947 66.2325 310.012 64.2027C312.238 63.3107 314.816 62.8789 316.929 61.8321L317.337 61.625Z" transform="scale(2.92969)" class="color685cbe svgShape"></path><defs><linearGradient id="c" x1="217.385" x2="197.924" y1="103.221" y2="132.32" gradientUnits="userSpaceOnUse"><stop offset="0" stop-color="#3c8e8e" class="stopColor573c8e svgShape"></stop><stop offset="1" stop-color="#65c7c7" class="stopColor7b65c7 svgShape"></stop></linearGradient></defs><path fill="url(#c)" d="M202.972 114.695C206.04 114.852 208.676 113.712 211.646 113.671L232.898 114.254L234.511 114.9C234.027 116.34 234.468 116.76 233.18 118.02L221.046 118.693C219.023 118.815 205.136 119.548 204.48 119.91C200.399 119.464 195.994 120.296 191.888 120.6L191.803 120.686C187.449 121.088 182.974 121.457 178.607 121.075C180.1 119.925 181.543 119.246 182.995 117.96C184.496 118.081 187.181 118.398 188.534 117.915C192.538 117.531 199.679 116.611 202.972 114.695Z" transform="scale(2.92969)"></path><path fill="#bfdfff" d="M313.029 114.131C315.842 113.787 327.908 113.107 329.969 115.616C335.663 119.452 339.858 119.199 346.475 119.184L361.758 119.355C368.63 119.642 375.462 120.75 382.033 121.051L425.331 123.854C441.018 125.153 467.825 128.911 477.38 143.474C481.021 147.374 484.434 154.635 484.482 159.991L485.026 163.402C485.342 165.459 486.291 168.74 485.499 170.621L486.041 170.726C486.751 172.049 486.9 176.303 486.797 177.904L487.339 185.563C487.613 187.665 488.046 190.59 487.735 192.663C487.762 194.716 487.971 196.886 487.775 198.929L488.916 289.35L488.785 290.516L488.37 321.649L488.215 323.385C488.29 329.044 488.603 334.66 487.734 340.279L487.654 344.608L487.55 360.538L487.116 365.395C487.095 369.361 487.198 373.425 486.564 377.352L486.375 375.315C485.307 375.693 484.288 377.133 483.303 377.833L461.974 392.05C459.295 393.665 456.463 394.918 453.703 396.377L433.55 407.2C419.716 414.95 406.647 424.151 393.194 432.542L377.128 442.344C373.273 444.627 369.259 446.756 365.625 449.377L365.467 449.729C365.236 450.231 365.338 450.035 365.043 450.506L251.754 445.327C250.751 445.339 249.132 445.051 248.066 444.989L240.144 444.527L223.343 443.256L221.09 443.212L88.4857 447.533L79.3977 446.801C58.1285 447.305 40.8251 440.526 30.5731 420.893L29.2744 418.007C28.3523 415.79 27.6347 413.43 27.227 411.063L25.8628 404.844C25.1381 402.285 25.1285 399.287 24.9989 396.635C24.9308 394.279 24.6927 391.796 24.9745 389.455L24.718 383.361L24.9533 376.386L25.1811 360.874L25.0221 355.92L25.2696 348.937C25.3038 346.973 25.6701 344.44 25.7469 342.417C25.2205 340.904 25.5042 337.912 25.6796 336.316L25.8331 326.645C25.577 323.818 25.7296 320.642 25.884 317.796L25.8694 312.643C26.0301 308.636 25.4845 304.472 26.2759 300.515L26.3026 293.141L26.3026 280.109L26.2413 275.992L26.1503 274.212L25.8843 269.716L25.7472 265.431L25.7913 259.758L25.2612 249.86L25.1529 245.668C24.738 241.97 24.9296 237.914 25.1165 234.191C25.1678 233.92 25.0773 233.017 25.0796 232.658L25.1473 228.082C25.2164 226.446 25.3741 224.845 25.6595 223.233L25.6559 217.803L25.8693 209.956L25.9983 200.639L26.2817 197.056L26.2966 184.855L26.2877 184.651C26.3372 183.364 26.3612 182.238 26.2641 180.943L25.5679 170.519C25.3647 168.014 25.5027 165.256 25.041 162.821C25.0249 157.273 25.6295 152.146 26.6375 146.71C28.4888 131.339 41.7343 123.482 56.2279 122.367C61.2239 121.983 66.6358 122.471 71.6707 122.519L83.142 122.486L89.8178 122.464L136.957 121.772C141.249 120.714 154.347 120.835 159.399 121.677L161.301 121.449C162.593 121.085 164.146 121.239 165.467 121.236L173.5 121.218L178.607 121.036C182.974 121.457 187.449 121.088 191.803 120.702L191.888 120.6C195.994 120.296 200.399 119.464 204.48 119.933C205.136 119.548 219.023 118.815 221.046 118.755L233.18 118.037L234.281 118.203C237.122 117.729 239.98 116.677 242.726 115.799C246.866 114.475 248.273 116.518 252.317 117.264C258.35 117.72 304.536 117.007 305.734 117.875L306 118.09C309.172 118.147 311.737 117.171 313.029 114.131Z" transform="scale(2.92969)" class="colordabfff svgShape"></path><path fill="#f2f8ff" d="M68.3725 408.125L68.7835 408.263C63.0573 413.133 57.4817 419.14 50.625 422.413L60.0761 414.496C62.8548 412.331 65.3449 409.993 68.3725 408.125zM118.533 367.452L118.75 367.885C119.762 367.661 120.798 367.276 121.821 367.168 117.942 368.997 113.725 369.577 109.8 371.557 100.265 376.366 94.9475 381.398 86.5879 386.396L85.7453 385.835 85.7562 385.779C94.3068 380.031 101.998 373.657 111.589 369.537 113.857 368.563 116.253 368.378 118.533 367.452z" transform="scale(2.92969)" class="colorf7f2ff svgShape"></path><path fill="#ffffff" d="M79.3977 446.801C81.6143 444.651 91.7333 443.173 96.238 441.399C97.3689 440.954 98.6613 440.223 99.8421 440.012L98.4239 441.048C96.5782 442.255 95.0083 443.653 93.787 445.5L92.6639 447.151L88.4857 447.288L79.3977 446.801Z" transform="scale(2.92969)" class="colorffffff svgShape"></path><defs><linearGradient id="d" x1="136.489" x2="138.461" y1="354.343" y2="358.302" gradientUnits="userSpaceOnUse"><stop offset="0" stop-color="#dbebfc" class="stopColoreadbfc svgShape"></stop><stop offset="1" stop-color="#f8f9fa" class="stopColorfcf8fe svgShape"></stop></linearGradient></defs><path fill="url(#d)" d="M156.14 343.725L157.671 346.246C157.34 346.932 157.084 347.184 156.5 347.635L156.073 347.689C152.686 348.174 148.631 352.163 145.742 354.048C138.2 358.967 130.049 363.5 121.821 367.168C120.798 367.276 119.762 367.661 118.75 367.885L118.533 367.452C131.588 360.872 145.798 354.341 156.14 343.725Z" transform="scale(2.92969)"></path><path fill="#f2f8ff" d="M122.846 127.32C133.224 127.109 119.512 130.295 116.455 131.816L99.1711 140.546C95.5221 142.355 91.9138 144.251 88.0529 145.578L83.5349 146.375C86.7097 144.182 89.9348 143.017 93.4629 141.581L103.25 137.271C109.566 134.236 115.971 128.938 122.846 127.32Z" transform="scale(2.92969)" class="colorf7f2ff svgShape"></path><defs><linearGradient id="e" x1="143.935" x2="146.152" y1="366.515" y2="370.595" gradientUnits="userSpaceOnUse"><stop offset="0" stop-color="#eaf4ff" class="stopColorf6eaff svgShape"></stop><stop offset="1" stop-color="#ffffff" class="stopColorffffff svgShape"></stop></linearGradient></defs><path fill="url(#e)" d="M163.894 354.954L166.475 358.197C165.593 359.709 162.517 360.356 161 361.249C158.744 362.576 156.672 364.223 154.439 365.586L128.514 380.759C125.033 382.722 121.58 384.925 117.996 386.681C118.812 385.385 121.705 383.867 123.016 382.997L151.489 365.452C157.24 361.767 159.991 360.54 163.894 354.954Z" transform="scale(2.92969)"></path><path fill="#ffffff" d="M25.1529 245.668L25.5 245.005C37.974 241.105 47.448 231.084 58.3463 224.224 57.2432 225.872 55.2244 227.162 53.7353 228.471L41.7106 238.486C37.1108 242.245 32.5983 245.901 27.5 248.991L27.1503 249.205C26.4749 249.612 26.0558 249.857 25.2612 249.86L25.1529 245.668zM25.7913 259.758L63.6222 237.431C61.9845 239.035 60.005 240.257 58.1028 241.522L48.4429 247.893 25.7472 265.431 25.7913 259.758zM26.2641 180.943C28.3685 179.52 30.6019 178.435 32.7365 177.09L55.6599 162.993C58.4676 161.331 62.0703 158.542 65.2534 157.777 60.3998 162.69 53.9002 166.246 48.3643 170.373L31.393 183.367C28.8216 185.303 26.9294 188.563 26.329 184.855L26.2877 184.651C26.3372 183.364 26.3612 182.238 26.2641 180.943zM26.2817 197.056C26.3854 196.302 26.3251 195.694 26.8357 195.115L27.2976 195.03C31.2632 194.22 35.0329 191.266 38.396 189.121L49.2704 182.375C53.8121 179.491 61.2934 173.615 66.5985 172.535 64.5235 174.493 62.1233 175.926 59.75 177.485L53.2791 182.028C50.2748 184.21 47.5359 186.705 44.6291 189.017L38.1052 193.805C36.6845 194.864 26.7947 203.215 26.3627 203.225L26.2092 200.639 26.2817 197.056z" transform="scale(2.92969)" class="colorffffff svgShape"></path><defs><linearGradient id="f" x1="45.931" x2="52.037" y1="273.665" y2="289.501" gradientUnits="userSpaceOnUse"><stop offset="0" stop-color="#e3f0fe" class="stopColorece3fe svgShape"></stop><stop offset="1" stop-color="#ffffff" class="stopColorffffff svgShape"></stop></linearGradient></defs><path fill="url(#f)" d="M26.3026 293.141C31.0567 291.935 48.2795 281.675 52.068 278.82L67.4017 266.607C69.6205 264.876 72.3956 262.115 75.0613 261.326C70.8703 265.449 66.0716 268.885 61.621 272.717C56.1862 277.397 50.9908 282.442 45.25 286.752C38.9453 291.485 32.2859 295.413 26.2305 300.515L26.3026 293.141Z" transform="scale(2.92969)"></path><path fill="#ffffff" d="M25.8694 312.643C26.7158 309.34 30.1796 309.062 32.777 307.401L64.0659 288.288C65.6667 287.391 67.4364 286.751 69.1413 286.077 67.336 287.951 64.4638 289.107 62.375 290.713L29.226 315.235C28.1188 316.074 27.1882 317.173 25.9386 317.796L25.8694 312.643zM251.85 125.875L251.968 126.375C248.741 129.048 244.948 130.994 241.34 133.094L230.25 139.778C218.927 146.68 195.681 162.555 183.375 166.21 180.978 165.84 193.251 159.55 194.072 159.02L221.948 141.069C230.444 136.097 242.616 129.752 251.85 125.875zM25.6595 223.233L25.711 223.3C27.4596 223.816 30.2033 222.084 31.7941 221.199L71.0428 198.701C68.0314 202.303 62.4414 204.868 58.5953 207.472L42.1487 219.358C39.4081 221.331 26.4296 229.295 26.0695 232.75L26.375 233.227C31.9312 233.021 38.2204 226.583 42.8137 223.949 41.7644 225.998 27.956 236.765 25.2862 238.4 25.2885 237.046 25.419 235.52 25.2171 234.191 25.1678 233.92 25.0773 233.017 25.0796 232.658L25.1473 228.082C25.2164 226.446 25.3741 224.845 25.6595 223.233zM485.658 256.375C488.037 255.648 486.764 259.013 485.925 259.97 484.823 261.227 482.211 262.06 480.723 262.973L418.614 298.98 417.875 299.264C419.129 297.686 421.787 296.413 423.5 295.317L476.519 261.558C479.605 259.795 482.416 257.878 485.658 256.375zM25.8331 326.645C28.0018 325.566 30.2326 324.696 32.2946 323.562L64.4255 306.148C68.0288 304.219 71.4599 301.131 75.2353 299.724 65.8924 309.863 43.9019 321.665 32.0556 329.913 29.461 331.72 28.0359 334.511 25.6796 336.316L25.8331 326.645zM159.399 121.527L161.301 121.449C160.095 123.66 151.613 127.047 149 128.493L120.946 144.624 107.561 150.592C104.197 152.164 100.874 154.387 97.4099 155.623 102.53 151.568 108.088 147.954 113.716 144.649L146.02 125.894C148.715 124.427 151.836 123.649 154.427 122.107 155.516 121.458 157.59 122.022 158.925 121.665L159.399 121.527zM25.8693 209.956L26.1994 209.899C31.4443 208.535 36.5935 204.847 41.3115 202.193 55.2103 194.375 69.0457 186.228 82.1955 177.184L91.7304 170.346C94.772 167.997 97.7141 165.408 100.985 163.388 99.1467 165.95 95.7733 168.08 93.3075 170.122L78.0215 181.885 42.8931 205.602C37.0765 209.591 31.107 213.303 25.6559 217.803L25.8693 209.956zM485.996 269.375L486.532 269.637C488.686 274.433 484.189 275.849 480.899 277.923L447.811 296.884C444.951 298.499 442.276 300.409 439.376 301.952L417.507 313.341C415.563 314.518 413.719 315.797 411.625 316.701L410.996 316.746C417.113 311.645 424.418 308.051 431.339 304.21L438.619 299.952C444.81 296.634 448.07 294.418 453.896 290.675L485.996 269.375zM487.116 365.395C486.584 366.078 485.636 366.529 484.864 367.011L480.15 369.974C471.542 375.813 465.091 379.657 456.105 384.455 454.939 385.078 454.032 386.075 452.875 386.735 445.503 390.938 437.189 394.712 428.815 396.2L447.555 386.831C457.721 381.452 472.278 371.818 479.625 363.219 481.408 361.132 483.962 357.504 487.125 357.717L487.284 360.538 487.116 365.395zM486.711 224.375C487.256 224.271 487.529 224.285 487.809 224.268L487.862 229.052C475.507 236.524 462.143 241.776 449.425 248.523L424.071 264.375C423.702 264.587 423.513 264.639 423.106 264.719 430.041 254.844 456.191 241.781 466.731 235.83L486.711 224.375zM221.09 443.212C218.635 443.127 215.768 443.403 213.375 442.965 215.177 438.424 224.746 435.942 228.897 433.875 235.865 430.406 263.336 414.6 269.75 415.54L269.851 415.875C267.879 417.789 265.089 419.124 262.704 420.487L232.131 437.257C229.085 438.874 225.538 439.97 222.873 442.171L221.873 442.875 223.343 443.256 221.09 443.212zM25.041 162.821C26.9078 162.683 27.9864 161.793 29.4039 161.02L43.6969 153.67C56.0596 147.856 65.4827 144.865 77.305 137.435L83.4798 133.734C87.5965 131.147 99.2865 122.884 104.769 126.811 92.83 128.246 82.3902 137.617 72.2148 143.223 57.3196 151.429 44.7771 155.031 30.5054 166.125 28.7462 167.493 27.2319 169.107 25.5269 170.519 25.3647 168.014 25.5027 165.256 25.041 162.821zM488.215 323.385C487.876 324.719 487.982 326.227 487.955 327.6 483.805 329.079 479.907 332.268 476.026 334.416L448.914 349.555C446.381 351.15 433.578 358.914 431.375 358.419L431.554 358.055C433.2 355.64 479.547 324.11 488.305 321.649L488.215 323.385zM487.59 209.625L488.052 213.185C486.085 215.016 483.877 216.095 481.547 217.375L425 249C421.243 251.254 417.611 253.549 413.567 255.268 414.215 254.363 415.552 253.475 416.464 252.823L436.25 239.267 476.334 214.891C479.864 212.92 483.666 210.658 487.59 209.625zM478.801 149.587C479.527 150.944 481.525 153.85 480.993 155.341L480.772 155.755C478.059 157.404 475.065 159.019 472.25 160.486L444.728 176.125C440.871 178.457 436.769 180.323 432.749 182.342L404.25 199.009C400.703 201.386 397.276 203.947 393.578 206.083 398.98 200.024 408.076 194.307 414.996 190.209L428 182.77 465.779 158.805C470.382 156.091 475.038 153.421 478.801 149.587zM25.8843 269.716C30.7173 267.445 35.3765 265.895 40.2335 263.389L80.25 240.229C84.1146 237.987 87.9372 235.435 91.9633 233.509 90.6487 235.109 88.2754 236.392 86.5363 237.551L57.3141 257.194 39.0895 271.896C35.5443 274.991 31.3763 280.375 26.7532 281.91 26.4878 281.319 26.4222 280.742 26.3148 280.109L26.2413 275.992 26.1503 274.212 25.8843 269.716z" transform="scale(2.92969)" class="colorffffff svgShape"></path><path fill="#bfdfff" d="M26.1503 274.212C31.1594 271.391 40.5042 263.726 46.0427 263.125C46.0073 264.482 38.4733 269.368 36.5 270.449C34.2853 271.663 27.5409 275.6 26.2413 275.992L26.1503 274.212Z" transform="scale(2.92969)" class="colordabfff svgShape"></path><path fill="#ffffff" d="M487.775 198.929L470.273 208.539 432.064 230.82C425.234 234.676 418.501 239.284 411.176 242.092 417.523 237.301 424.558 233.106 431.179 228.676L443.047 220.533 483.25 195.503C484.602 194.701 486.284 193.043 487.738 192.663 487.762 194.716 487.971 196.886 487.775 198.929zM485.499 170.621C485.09 170.677 485.301 170.622 484.831 170.839L442.274 193.296C431.022 198.902 414.743 204.792 404.691 211.493L404.312 211.751C404.02 211.947 399.688 215.294 401.093 213.913 402.289 212.738 403.673 212.05 405 211.061 414.081 204.298 420.376 201.852 430.046 196.6L475.985 168.703C479.025 166.811 481.624 164.693 485.026 163.402 485.342 165.459 486.291 168.74 485.499 170.621zM240.144 444.527C242.593 441.996 246.972 439.893 250.105 438.297L286.553 419.935 299.246 412.265C302.351 410.346 305.405 408.368 308.837 407.092 299.564 418.347 278.339 429.401 265.684 436.369L257.538 440.743C255.916 441.634 253.929 442.6 252.75 444.061L252.305 444.185C249.599 444.97 251.696 444.827 252.5 445L251.754 445.327C250.751 445.339 249.132 445.051 248.066 444.989L240.144 444.527zM204.48 119.933C205.136 119.548 219.023 118.815 221.046 118.755 219.798 119.871 218.232 120.249 216.685 120.784 207.999 123.788 200.918 128.345 193.069 133.078L169.043 147.563C156.265 155.47 144.796 162.978 130.556 167.958 137.151 163.325 144.394 159.503 151.209 155.195L199.15 123.948C200.393 123.113 201.798 122.72 202.808 121.575L204.48 119.933zM433.129 125.598L433.159 125.555C433.89 125.526 434.774 125.41 435.486 125.552L435.75 125.625C436.14 125.726 436.174 125.658 436.438 125.977L436.125 125.946C428.939 124.955 421.825 131.023 415.768 134.089L387.724 148.267 348.601 169.782 346.769 170.255C348.883 168.491 351.301 167.102 353.576 165.56L383.5 146.234 412.553 129.797C414.751 128.526 418.823 126.185 421.437 126.961 422.55 127.291 425.172 127.17 426.227 126.749L427 127.439 427.75 127.125C429.533 126.315 431.122 125.81 433.129 125.598zM487.339 185.563L408.793 230.92C413.158 226.322 418.306 222.725 423.4 219.001L476.571 184.082C479.514 182.132 483.295 178.909 486.721 177.904L487.339 185.563zM178.607 121.036C182.974 121.457 187.449 121.088 191.803 120.702L191.613 121.375C188.896 122.655 186.039 123.245 183.288 124.375L173.001 129.042C166.519 131.933 160.124 134.727 153.885 138.135L118.02 158.809C114.586 160.728 111.3 163.303 107.71 164.876 109.154 163.26 111.141 161.985 112.889 160.697L130.255 149.054C136.954 144.496 143.398 139.191 150.386 135.107L161.507 128.935C165.448 126.838 170.504 124.687 173.5 121.239L178.607 121.036zM470.096 140.125L470.875 139.96C472.725 140.751 473.842 142.621 474.751 144.323L390.368 194.489C389.302 195.249 388.327 195.974 387.073 196.404 394.463 190.029 402.184 184.089 410.325 178.684L465.25 143.742C466.874 142.54 468.397 141.228 470.096 140.125zM423.393 395.875L424.41 395.907C422.414 397.609 420.023 398.69 417.809 400.068L353.329 439.952C348.294 442.867 344.313 445.305 338.375 446.123 338.1 446.202 337.895 446.078 337.625 446L348.4 437.995C357.993 430.942 364.283 427.061 374.63 421.594L388.176 414.061C399.611 407.61 411.136 400.643 423.393 395.875zM25.7469 342.417L25.8925 342.269C28.0618 340.757 30.2277 339.642 32.4682 338.282L102.946 298.037C104.708 297.011 106.583 295.815 108.524 295.169 107.262 296.478 105.858 297.292 104.364 298.309L67.9212 322.916 33.31 344.569C31.4539 345.865 26.6982 348.902 26.0902 350.984 25.5862 352.709 25.4821 349.272 25.4654 348.937 25.3038 346.973 25.6701 344.44 25.7469 342.417zM234.281 118.203C237.122 117.729 239.98 116.677 242.726 115.799 246.866 114.475 248.273 116.518 252.317 117.264 250.958 118.989 247.518 119.225 245.403 119.884 239.097 121.849 233.172 124.595 227.343 127.703L149.811 172.746C147.232 174.206 144.778 175.749 142.109 177.06 145.634 173.564 149.427 170.946 153.49 168.141L192.068 142.904 223.75 124.537C227.595 122.422 230.929 121.116 234.281 118.203zM488.785 290.516C485.33 296.644 460.779 309.054 454.33 312.523L405.513 340.762 365.508 366.646C361.212 369.276 356.693 372.787 351.874 374.248L355.352 370.802C359.111 367.361 364.142 364.782 368.396 361.961L415.469 332.92 483.473 289.539C484.937 288.514 486.744 286.851 488.625 286.937L488.782 289.35 488.785 290.516zM487.654 344.608C482.992 346.264 478.758 349.721 474.306 352.073 464.36 357.326 454.024 361.871 444.377 367.706L415.676 386.791C402.279 395.135 387.619 400.722 374.064 408.709L347.54 426.125C343.027 429.08 319.124 444.197 315.348 444.391L314.625 444.429C312.297 444.921 310.082 444.572 307.773 444.673L308.25 444.37C311.002 442.53 314.057 441.229 316.981 439.694L326.009 434.415C339.667 425.956 352.87 416.483 367.25 409.25L384.239 401.493C386.172 400.709 388.209 400.285 390.125 399.437 411.842 389.829 430.853 374.667 450.237 361.241L465.457 351.635C472.535 346.946 479.55 341.567 487.308 338.083L487.787 340.279 487.654 344.608z" transform="scale(2.92969)" class="colorffffff svgShape"></path><path fill="#bfdfff" d="M25.0221 355.92C31.5001 356.392 38.2784 351.537 43.5081 348.699C59.6921 339.918 74.8638 329.467 90.4038 319.627L130.815 294.657C134.385 292.543 137.472 290.346 141.572 289.347L141.512 292.389L142.122 301.632C142.22 302.928 142.193 304.315 142.467 305.585L142.603 306.942C145.967 322.091 148.835 329.85 156.14 343.725C145.798 354.341 131.588 360.872 118.533 367.452C116.253 368.378 113.857 368.563 111.589 369.537C101.998 373.657 94.3068 380.031 85.7562 385.779L85.7453 385.835L86.5879 386.396L67.7628 398.349L48.4233 409.104C47.7955 409.486 46.6404 410.247 45.9492 410.397C44.4088 411.52 42.6097 412.207 41.0482 413.309C39.3036 414.541 31.0716 420.305 30.5731 420.893L29.2744 418.007C28.3523 415.79 27.6347 413.43 27.227 411.063L25.8628 404.844C25.1381 402.285 25.1285 399.287 24.9989 396.635C24.9308 394.279 24.6927 391.796 24.9745 389.455L24.718 383.361L24.9533 376.386L25.1811 360.874L25.0221 355.92Z" transform="scale(2.92969)" class="colordabfff svgShape"></path><path fill="#f2f8ff" d="M46.6833 408.633L47.0348 408.642C47.7159 408.632 48.3636 408.144 48.9284 407.803L49.4375 407.812C48.3501 408.999 46.6406 409.492 45.3304 410.349L45.9492 410.397C44.4088 411.52 42.6097 412.207 41.0482 413.309C39.3036 414.541 31.0716 420.305 30.5731 420.893L29.2744 418.007C34.5291 415.929 34.8516 416.218 39.2641 412.786C41.3964 411.128 44.1919 409.633 46.6833 408.633Z" transform="scale(2.92969)" class="colorf7f2ff svgShape"></path><path fill="#ffffff" d="M85.7453 385.835L86.5879 386.396L67.7628 398.349L48.4233 409.104C47.7955 409.486 46.6404 410.247 45.9492 410.397L45.3304 410.349C46.6406 409.492 48.3501 408.999 49.4375 407.812L48.9284 407.803C48.3636 408.144 47.7159 408.632 47.0348 408.642L46.6833 408.633L85.7453 385.835Z" transform="scale(2.92969)" class="colorffffff svgShape"></path><path fill="#f2f8ff" d="M24.9745 389.455L24.9967 389.504C29.0846 390.222 38.4857 383.466 42.25 381.493L63.7933 370.672C67.7406 368.738 68.5595 368.419 72.4136 366.963C74.0916 366.328 75.6421 365.32 77.3143 364.619L77.329 364.3C75.2973 364.251 73.689 366.306 71.75 366.875L71.3711 367.004C67.8921 368.164 74.5073 362.172 75.0909 361.768L106.663 342.109C100.862 348.095 91.972 354.494 85.125 359.127L84.2852 359.782C83.3972 360.67 82.0843 361.782 81.0625 362.501L80.5272 363.022C78.2562 365.253 75.0708 367.177 72.315 368.749L35.4043 390.827C31.98 392.777 28.6529 395.14 24.9979 396.635C24.9308 394.279 24.6927 391.796 24.9745 389.455Z" transform="scale(2.92969)" class="colorf7f2ff svgShape"></path><path fill="#ffffff" d="M25.8628 404.844L26.1409 404.824C30.0817 404.479 33.9171 401.459 37.2634 399.557L47.7345 393.778 106.428 358.501 143.568 338.625C144.784 337.932 147.457 335.815 148.875 336.377 146.893 339.244 140.41 342.113 137.397 343.72L112.839 357.604 37.7688 403.968C34.2448 405.908 29.442 407.086 27.3756 410.812L27.227 411.063 25.8628 404.844zM24.9533 376.386C25.0649 375.359 25.0021 374.153 25.0461 373.09 36.3391 371.125 61.1883 355.577 71.4048 348.435L93.7064 333.113 134.174 308.554C136.623 307.218 139.147 305.737 141.875 305.057L142.467 305.585 142.603 306.942C135.275 310.036 128.546 314.817 121.767 318.953L83.6406 343.366 59.8436 361.171C53.8973 365.399 47.1882 369.301 40.75 372.735 37.7595 374.33 26.8462 379.13 25.6908 382.001L25.5635 382.324C25.3644 382.787 25.0841 383.028 24.718 383.361L24.9533 376.386z" transform="scale(2.92969)" class="colorffffff svgShape"></path><path fill="#bfdfff" d="M25.0221 355.92C31.5001 356.392 38.2784 351.537 43.5081 348.699C59.6921 339.918 74.8638 329.467 90.4038 319.627L130.815 294.657C134.385 292.543 137.472 290.346 141.572 289.347L141.512 292.389L142.122 301.632C142.22 302.928 142.193 304.315 142.467 305.585L141.875 305.057C139.147 305.737 136.623 307.218 134.174 308.554L93.7064 333.113L71.4048 348.435C61.1883 355.577 36.3391 371.125 25.0461 373.09C25.0021 374.153 25.0649 375.359 24.789 376.386L25.1811 360.874L25.0221 355.92Z" transform="scale(2.92969)" class="colordabfff svgShape"></path><path fill="#ffffff" d="M25.0221 355.92C31.5001 356.392 38.2784 351.537 43.5081 348.699C59.6921 339.918 74.8638 329.467 90.4038 319.627L130.815 294.657C134.385 292.543 137.472 290.346 141.572 289.347L141.512 292.389C134.993 293.437 121.752 304.137 115.75 308.011L56.1934 346.875L36.1627 358.661C32.3646 360.838 29.1147 363.207 25.1102 365.112C25.2045 363.707 25.3773 362.277 25.2136 360.874L25.0221 355.92Z" transform="scale(2.92969)" class="colorffffff svgShape"></path><path fill="#ff7847" d="M141.572 289.347C142.128 281.728 142.198 274.199 143.322 266.625C147.825 236.269 160.135 212.975 184.512 194.707C197.346 185.089 212.139 175.08 227.75 170.522C233.668 168.794 239.979 168.374 246.031 167.346C270.91 163.117 310.358 172.938 329.955 187.059C356.131 205.919 373.096 237.939 378.084 269.299C384.753 311.228 365.584 353.969 330.529 377.415C322.906 382.83 315.257 389.354 306.224 392.168L300.573 394.371C285.703 401.791 261.679 403.798 245.354 401.442L229.825 398.66C197.814 391.592 188.42 381.443 166.475 358.197L163.894 354.954L157.671 346.246L156.14 343.725C148.835 329.85 145.967 322.091 142.603 306.942L142.467 305.585C142.193 304.315 142.22 302.928 142.122 301.632L141.583 292.389L141.572 289.347Z" transform="scale(2.92969)" class="color4f518c svgShape"></path><path fill="#150811" d="M226.726 232.558L227 231.932L225.877 232.375C223.447 232.993 224.695 231.657 225.752 230.827C228.094 228.987 231.083 227.889 233.5 226.127L234.001 225.751C235.362 225.098 236.387 223.449 237.676 222.687L296.667 191.308C300.263 189.32 304.011 186.658 307.865 185.283L314.478 188.886C315.135 189.371 315.899 189.841 316.49 190.398C319.242 192.203 322.048 193.94 324.493 196.156L334.08 205.2L336.26 207.567C339.25 210.945 342.156 214.248 344.687 217.994C345.031 218.443 345.443 218.897 345.706 219.397C336.153 225.573 321.913 241.496 313.136 244.769L311.72 243.325C308.236 239.816 304.703 236.729 300.681 233.841C299.982 233.769 297.585 231.885 296.833 231.41C288.662 227.345 280.89 224.731 271.688 224.721C267.951 225.19 256.046 225.819 253.86 228.578L253.489 229.079C246.577 228.579 232.587 232.511 226.309 236.197C227.608 233.217 226.266 234.792 226.726 232.558Z" transform="scale(2.92969)" class="color907ad6 svgShape"></path><path fill="#ff7847" d="M272.609 213.255L253.463 223.322C252.428 223.927 251.448 224.838 250.312 225.21C250.545 224.835 250.611 224.756 251 224.5L251.75 224C252.293 223.579 252.841 223.367 253.398 222.996L253.867 221.706C252.28 221.696 250.1 223.394 248.794 223.128L272.549 212.885L272.609 213.255Z" transform="scale(2.92969)" class="color4f518c svgShape"></path><path fill="#5cbebe" d="M344.687 217.994C345.031 218.443 345.443 218.897 345.706 219.397C336.153 225.573 321.913 241.496 313.136 244.769L311.72 243.325C312.903 242.206 314.326 241.344 315.621 240.36L344.687 217.994Z" transform="scale(2.92969)" class="color685cbe svgShape"></path><path fill="#ffffff" d="M226.309 236.197C232.587 232.511 246.577 228.579 253.489 229.079L271.572 231.574L272.863 231.956C275.162 232.607 277.371 232.322 279.524 233.697C300.068 240.36 309.91 255.563 315.454 275.045L316.195 278.134C318.44 292.815 314.964 310.47 305.936 322.617C298.59 332.502 281.914 343.15 269.562 344.917C262.455 345.933 250.52 344.395 243.718 341.71C241.901 341.251 239.931 340.027 238.631 338.71C233.327 337.516 227.198 334.015 223.015 330.604L221.152 328.883L218.223 326.368C216.831 325.058 215.652 323.511 214.439 322.036C213.962 321.801 213.395 320.965 213.031 320.543L210.592 316.986C208.588 314.539 207.239 311.447 206.087 308.526L205.039 306.244C204.024 304.298 203.767 301.491 203.412 299.324C199.845 277.533 201.372 265.577 215.597 247.498C218.842 243.375 222.198 239.486 226.309 236.197Z" transform="scale(2.92969)" class="colorffffff svgShape"></path><path fill="#bfdfff" d="M214.439 322.036C220.072 322.351 219.606 322.344 225.496 321.501C223.023 323.032 220.714 324.967 218.223 326.368C216.831 325.058 215.652 323.511 214.439 322.036Z" transform="scale(2.92969)" class="colordabfff svgShape"></path><path fill="#5cd6ff" d="M221.152 328.883C226.948 328.033 236.766 325.558 241.573 325.382C237.27 327.987 228.716 330.821 223.846 330.523C223.376 330.494 223.56 330.497 223.015 330.604L221.152 328.883Z" transform="scale(2.92969)" class="color96b1de svgShape"></path><path fill="#b2ceea" d="M287.548 240.625L288.375 240.583C284.444 243.546 265.647 250.08 260.875 251.598L260.108 251.625C266.517 247.495 279.969 242.484 287.548 240.625Z" transform="scale(2.92969)" class="colorb2d9ea svgShape"></path><defs><linearGradient id="g" x1="211.418" x2="225.199" y1="315.877" y2="315.181" gradientUnits="userSpaceOnUse"><stop offset="0" stop-color="#4fbbbb" class="stopColor888ac5 svgShape"></stop><stop offset="1" stop-color="#99cfe1" class="stopColor99afe1 svgShape"></stop></linearGradient></defs><path fill="url(#g)" d="M210.592 316.986L227.272 309.922C223.266 313.875 218.106 318.049 213.031 320.543L210.592 316.986Z" transform="scale(2.92969)"></path><path fill="#150811" d="M238.631 338.71C244.746 338.357 250.543 336.993 256.171 334.524C258.287 333.595 260.395 332.194 262.626 331.58C258.498 334.991 253.882 338.149 248.863 340.1C247.188 340.751 245.315 340.942 243.718 341.71C241.901 341.251 239.931 340.027 238.631 338.71Z" transform="scale(2.92969)" class="color907ad6 svgShape"></path><path fill="#5cd6ff" d="M253.296 243.449C253.125 243.792 239.528 252.393 237.887 253.502L222.291 264.902C212.809 272.251 210.177 275.339 203.216 284.375L202.98 284.375C207.956 275.873 212.098 271.996 219.736 265.709L241.352 249.614C244.842 247.181 248.459 244.326 252.213 242.345L252.061 242.689C251.581 243.634 249.151 244.821 248.23 245.439L238.769 252C238.197 252.422 236.917 253.039 236.625 253.627C237.258 253.621 238.727 252.47 239.312 252.001L240.23 251.384C240.681 250.935 241.445 250.495 242 250.127L242.377 249.875C243.151 249.422 243.777 248.872 244.562 248.501L245.312 248.001C246.457 247.327 248.334 246.364 249.125 245.377L249.676 245.216C250.127 244.813 250.273 244.749 250.812 244.501L251.25 244.127C251.63 243.824 251.826 243.818 252.25 243.625L253.296 243.449Z" transform="scale(2.92969)" class="color96b1de svgShape"></path><path fill="#ff7847" d="M305.069 267.875L305.375 267.95C301.676 271.179 298.225 274.762 294.364 277.777C282.37 287.141 268.966 294.797 256.257 303.125L292.174 277.84C294.198 276.461 296.379 275.15 298.311 273.655L305.069 267.875Z" transform="scale(2.92969)" class="color4f518c svgShape"></path><path fill="#150811" d="M271.572 231.574L272.863 231.956C275.162 232.607 277.371 232.322 279.524 233.697C275.242 235.145 270.711 235.745 266.443 237.202C261.703 238.821 257.763 241.318 253.296 243.449L252.25 243.625C251.826 243.818 251.63 243.824 251.25 244.127L250.812 244.501C250.273 244.749 250.127 244.813 249.676 245.216L249.125 245.377C248.334 246.364 246.457 247.327 245.312 248.001L244.562 248.501C243.777 248.872 243.151 249.422 242.377 249.875L242 250.127C241.445 250.495 240.681 250.935 240.23 251.384L239.312 252.001C238.727 252.47 237.258 253.621 236.625 253.627C236.917 253.039 238.197 252.422 238.769 252L248.23 245.439C249.151 244.821 251.581 243.634 252.061 242.689L252.213 242.345C252.437 241.301 265.216 234.614 266.993 233.74C268.515 232.99 270.157 232.526 271.572 231.574Z" transform="scale(2.92969)" class="color907ad6 svgShape"></path><path fill="#5cd6ff" d="M205.039 306.244C208.596 304.027 211.329 300.773 214.574 298.137C223.568 290.833 232.694 283.669 242.803 277.949C241.758 279.352 240.271 280.471 238.947 281.609L206.087 308.526L205.039 306.244Z" transform="scale(2.92969)" class="color96b1de svgShape"></path><path fill="#b2ceea" d="M315.454 275.045L316.195 278.134C315.252 279.121 314.997 280.797 314.309 282C312.886 284.489 298.36 298.103 295.823 298.175C295.047 294.283 304.098 286.38 306.593 283.891L311.783 278.625C312.752 277.706 314.696 276.497 315.288 275.38L315.454 275.045Z" transform="scale(2.92969)" class="colorb2d9ea svgShape"></path><path fill="#150811" d="M241.688 170.246L242.233 170.908C241.032 171.92 239.893 172.84 242.25 173.375L243.055 172.876C243.931 172.438 248.826 171.345 249.666 171.249C253.857 170.775 264.004 171.362 268.283 172.025C270.475 172.843 273.196 173.368 275.52 173.57C279.348 174.266 283.807 174.994 287.44 176.387L291.689 178.302C295.78 179.711 300.217 180.939 304.074 182.895L230.502 226.894C227.859 228.4 221.656 230.797 220.466 231.881C205.06 240.452 197.344 251.796 190.175 266.985L190.152 266.973C187.17 282.285 187.245 297.22 193.606 311.858C193.822 312.233 194.088 312.6 194.185 313.024C198.995 321.704 205.47 329.427 213.417 335.409C220.229 340.559 227.868 344.961 236.319 346.765L239.266 347.662L240.405 347.817C244.019 346.704 260.11 349.609 267.653 348.418L224.377 377.625L235.283 370.792C245.588 364.342 256.125 358.447 267.048 353.113C280.02 346.78 294.526 343.389 306.188 334.591C329.783 316.792 334.761 281.582 320.919 256.125C318.697 252.039 315.975 248.43 313.136 244.769C321.913 241.496 336.153 225.573 345.706 219.397C359.1 238.74 364.351 255.666 366.68 278.347L366.746 279.952C366.813 300.813 365.862 312.551 357.33 332.561C350.456 348.684 338.476 360.915 327.055 373.961C323.755 377.172 320.073 379.882 316.422 382.672L308.849 388.425C307.397 389.646 306.332 390.207 306.224 392.168L300.573 394.371C299.481 394.141 298.531 394.539 297.485 394.805L290.293 396.831C278.955 399.718 273.628 399.038 261.916 397.723C229.827 394.122 205.369 381.075 182.616 358.27C165.667 341.621 156.166 317.183 154.429 293.83C153.686 264.122 158.119 239.672 175.759 214.368C182.779 204.297 189.449 199.348 199.695 192.46L220.461 179.347C223.843 177.359 229.918 172.641 232.81 171.672L234 171.271C234.883 170.958 238.295 170.164 239.123 170.625L239.375 170.377C239.983 170.603 240.605 170.431 241.259 170.439L241.688 170.246Z" transform="scale(2.92969)" class="color907ad6 svgShape"></path><path fill="#bfdfff" d="M241.259 170.439L241.688 170.246L241.75 170.627C240.499 171.799 239.071 172.684 237.625 173.589C235.278 171.266 239.842 171.206 241.259 170.439Z" transform="scale(2.92969)" class="colordabfff svgShape"></path><path fill="#5cbebe" d="M357.961 300.875C360.894 300.258 360.48 302.277 358.243 303.761C355.066 305.869 351.626 307.152 348.33 308.985C343.364 311.749 338.592 314.984 333.383 317.262L331.377 317.875L346.141 308.108C349.911 305.659 353.813 302.599 357.961 300.875Z" transform="scale(2.92969)" class="color685cbe svgShape"></path><defs><linearGradient id="h" x1="232.939" x2="225.441" y1="206.672" y2="197.233" gradientUnits="userSpaceOnUse"><stop offset="0" stop-color="#70bbbb" class="stopColor7a70bb svgShape"></stop><stop offset="1" stop-color="#5ac5c5" class="stopColor6a5ac5 svgShape"></stop></linearGradient></defs><path fill="url(#h)" d="M268.283 172.06C270.475 172.843 273.196 173.368 275.52 173.57C274.2 174.155 273.13 175.29 271.779 175.949C268.963 177.32 265.951 178.314 263.191 179.781L246.744 189.551C237.131 195.288 227.171 200.507 217.909 206.819C204.296 216.095 191.877 226.846 179 237.085L180.045 235.559C182.439 233.652 184.446 231.062 186.747 228.995C196.836 219.933 206.747 211.052 218.253 203.849L235.409 193.637C237.95 192.147 240.263 190.345 242.75 188.782L259.142 179.056C261.78 177.401 263.676 174.846 266.188 173.181L268.283 172.06Z" transform="scale(2.92969)"></path></svg>