<svg xmlns="http://www.w3.org/2000/svg" xmlns:xlink="http://www.w3.org/1999/xlink" viewBox="0 0 48 48" id="Mountain"><defs><linearGradient id="a" x1="17" x2="47" y1="29" y2="29" gradientUnits="userSpaceOnUse"><stop offset="0" stop-color="#54d4ff" class="stopColor54a5ff svgShape"></stop><stop offset="1" stop-color="#5cd6ff" class="stopColor8ad3fe svgShape"></stop></linearGradient><linearGradient id="d" x1="19" x2="19" y1="42" y2="10" xlink:href="#a"></linearGradient><linearGradient id="b" x1="8.5" x2="8.5" y1="47" y2="35" gradientUnits="userSpaceOnUse"><stop offset="0" stop-color="#ff7847" class="stopColorfe9661 svgShape"></stop><stop offset="1" stop-color="#ff9169" class="stopColorffb369 svgShape"></stop></linearGradient><linearGradient id="e" gradientTransform="matrix(-1 0 0 1 48 0)" xlink:href="#b"></linearGradient><linearGradient id="c" x1="19" x2="19" y1="19.26" y2="10" gradientUnits="userSpaceOnUse"><stop offset="0" stop-color="#d3e4f5" class="stopColord3e6f5 svgShape"></stop><stop offset="1" stop-color="#f8f9fa" class="stopColorf0f7fc svgShape"></stop></linearGradient><linearGradient id="f" x1="32" x2="32" y1="20.88" y2="15" xlink:href="#c"></linearGradient><linearGradient id="g" x1="33" x2="45" y1="7" y2="7" xlink:href="#b"></linearGradient></defs><path fill="url(#a)" d="M47,43H17L32,15Z"></path><path fill="url(#d)" d="M37,42H1l1.41-2.51L5,30H7.75c1.58-2.8,0,.07,11.25-20Z"></path><path fill="#4fbbbb" d="M26,42a1,1,0,0,1-1-.86l-.93-6.48-3.53-1.77a1,1,0,0,1-.52-.65l-1-4A1,1,0,0,1,21,27.76l.89,3.55,3.59,1.8a1,1,0,0,1,.54.75l1,7A1,1,0,0,1,26,42Z" class="color4795ea svgShape"></path><path fill="url(#b)" d="M16,40v4L1,47V41a4,4,0,0,1,5.73-3.6A5,5,0,0,1,16,40Z"></path><path fill="url(#e)" d="M32,40v4l15,3V41a4,4,0,0,0-5.73-3.6A5,5,0,0,0,32,40Z"></path><path fill="#150811" d="M47,47H1c0-4.42,10.3-8,23-8S47,42.58,47,47Z" class="colorffb369 svgShape"></path><path fill="url(#c)" d="M23.41,17.85a7.59,7.59,0,0,1-8.82,0L19,10Z"></path><path fill="url(#f)" d="M34.68,20a4.47,4.47,0,0,1-5.36,0L32,15Z"></path><path fill="#4fbbbb" d="M13 29v3a1 1 0 01-2 0V30H7.75l1.13-2H12A1 1 0 0113 29zM37.73 25.69l-.73.72V29c0 .55-.16.58-2.29 2.71a1 1 0 01-1.42-1.42L35 28.59c0-2.77-.09-2.9.29-3.3l1.45-1.45z" class="color4795ea svgShape"></path><circle cx="39" cy="7" r="6" fill="url(#g)"></circle></svg>