<svg xmlns="http://www.w3.org/2000/svg" viewBox="0 0 32 32" id="Mountain"><g data-name="Layer 2" fill="#150811" class="color000000 svgShape"><path fill="#4fbbbb" d="M27.451,26H17a1,1,0,0,1,0-2H27.451a.548.548,0,0,0,.463-.843L22.5,14.641a1,1,0,0,0-.734-.458,1.012,1.012,0,0,0-.817.287l-2.237,2.237a1,1,0,0,1-1.414-1.414l2.237-2.237a3,3,0,0,1,4.652.511l5.42,8.516A2.549,2.549,0,0,1,27.451,26Z" class="color4c46c8 svgShape"></path><path fill="#5cd6ff" d="M17,26H4.618a2.619,2.619,0,0,1-2.342-3.789L9.65,7.462a2.647,2.647,0,0,1,4.7-.07L20.88,19.526a1,1,0,0,1-1.76.948L12.585,8.339a.67.67,0,0,0-1.146.018L4.065,23.105A.619.619,0,0,0,4.618,24H17a1,1,0,0,1,0,2Z" class="color171938 svgShape"></path></g></svg>