<svg xmlns="http://www.w3.org/2000/svg" viewBox="0 0 64 64" id="mountainlocation"><ellipse cx="32" cy="53.5" fill="#5cd6ff" rx="29" ry="7.5" class="colorfccd1d svgShape"></ellipse><ellipse cx="32" cy="53.5" fill="#ff7847" rx="20" ry="3.5" class="colorf9a215 svgShape"></ellipse><path fill="#4fbbbb" d="M54 25a22 22 0 1 0-31.14 20l7.82 7.84a2 2 0 0 0 2.64 0L41.14 45A22 22 0 0 0 54 25Z" class="colordd051d svgShape"></path><circle cx="32" cy="25" r="18" fill="#f8f9fa" class="colorffffff svgShape"></circle><path fill="#4fbbbb" d="M37 16h-5v-4h5l-1 2 1 2z" class="colordd051d svgShape"></path><path fill="#150811" d="M32 11a1 1 0 0 0-1 1v9a1 1 0 0 0 2 0v-9a1 1 0 0 0-1-1Z" class="color212529 svgShape"></path><path fill="#8b1667" d="M32 19 21 34h22L32 19z" class="color16388b svgShape"></path><path fill="#e6e7e8" d="m32 26 3 3 2.5-2.5L32 19l-5.5 7.5L29 29l3-3z" class="colore6e7e8 svgShape"></path></svg>