<svg xmlns="http://www.w3.org/2000/svg" data-name="Layer 2" viewBox="0 0 641.08 949.5" id="Mountainandlake"><path fill="#f8f9fa" d="M701.64 733.54S618.62 311 816 229.3 946.72 55.17 1060.67 65.92s178.44 155 195.64 289.27 83.48 450.25-26.69 486.29c-132.78 43.43-150.81 179.19-265.77 172.88C741 1002.11 701.64 733.54 701.64 733.54Z" transform="translate(-667.71 -65.06)" class="colorf8f8ff svgShape"></path><path fill="#5cd6ff" d="m690.92 658.82 590.07-5s-200.56 7.65-202.51 72.74-25.38 121-113.21 127.68-147.16-100.49-259.61-99.9c-75.72.39-14.74-95.52-14.74-95.52Z" transform="translate(-667.71 -65.06)" class="colorffffff svgShape"></path><path fill="#4fbbbb" d="m1291.79 655.82-600.87 3s106.69-131.77 197.89-106.44c64.41 17.88 32.4-96.24 122.27-103s8.55 64 123.6 63.44c77.48-.39 157.11 143 157.11 143Z" transform="translate(-667.71 -65.06)" class="colore9edfb svgShape"></path><path fill="#ff7847" d="M1245.55 654.79h63.24s-6.15-22.84-25.47-22-19.33 11-19.33 11-21.08-1.3-18.44 11ZM667.71 679.29h91.36s-1.76-14.93-12.3-14.93-9.66-35.14-33.38-36-38.65 10.52-45.68 50.93Z" transform="translate(-667.71 -65.06)" class="colorbac5f4 svgShape"></path></svg>