<svg xmlns="http://www.w3.org/2000/svg" enable-background="new 0 0 512 512" viewBox="0 0 512 512" id="percentage"><path fill="#5cd6ff" fill-rule="evenodd" d="M376.044,340.047c-9.922,0-17.999,8.081-17.999,18
		c0,11.622-4.676,22.109-12.333,29.622C338.06,395.324,327.572,400,315.951,400c-11.479,0-21.967-4.676-29.624-12.331
		c-7.653-7.513-12.328-18-12.328-29.622c0-9.919-8.082-18-17.999-18c-9.922,0-17.999,8.081-17.999,18
		c0,11.622-4.68,22.109-12.333,29.622C218.157,395.324,207.67,400,196.044,400c-11.62,0-22.108-4.676-29.761-12.331
		c-7.511-7.513-12.333-18-12.333-29.622c0-23.669-35.998-23.669-35.998,0c0,11.622-4.675,22.109-12.191,29.622
		C98.109,395.324,87.621,400,76,400v36c21.542,0,41.103-8.785,55.134-22.818c1.698-1.702,3.402-3.546,4.817-5.385
		c1.562,1.839,3.26,3.683,4.964,5.385C154.946,427.215,174.502,436,196.044,436c21.547,0,40.961-8.785,55.134-22.818
		c1.703-1.702,3.26-3.546,4.822-5.385c1.557,1.839,3.114,3.683,4.817,5.385C274.99,427.215,294.408,436,315.951,436
		c21.542,0,41.103-8.785,55.275-22.818c1.698-1.702,3.26-3.546,4.817-5.385c1.562,1.839,3.119,3.683,4.822,5.385
		C395.039,427.215,414.452,436,436,436v-36c-11.625,0-22.113-4.676-29.624-12.331c-7.653-7.513-12.333-18-12.333-29.622
		C394.043,348.128,385.966,340.047,376.044,340.047L376.044,340.047z" clip-rule="evenodd" class="color176b7d svgShape"></path><path fill="#4fbbbb" fill-rule="evenodd" d="M325.019,321.905c8.79,0,16.584-1.418,23.388-4.108
		c6.944-2.695,12.757-6.662,17.716-11.764c4.963-4.96,8.648-11.055,11.2-18.283c2.548-7.088,3.826-15.026,3.826-23.527
		c0-8.506-1.137-16.301-3.685-23.388c-2.552-7.227-6.237-13.321-11.059-18.284c-4.817-5.102-10.63-9.071-17.575-11.905
		c-6.944-2.834-14.88-4.25-23.812-4.25c-8.501,0-16.012,1.416-22.957,4.108c-6.804,2.834-12.758,6.662-17.574,11.764
		c-4.822,5.104-8.507,11.057-11.055,18.142c-2.552,7.087-3.973,15.023-3.973,23.813c0,8.643,1.421,16.723,3.973,23.811
		c2.548,7.088,6.232,13.182,11.055,18.142c4.816,4.96,10.63,8.927,17.433,11.622C308.724,320.487,316.376,321.905,325.019,321.905
		L325.019,321.905z M227.513,175.638c4.817-5.102,8.502-11.054,11.055-18.142c2.694-7.087,3.968-15.024,3.968-23.811
		c0-8.646-1.274-16.726-3.968-23.811c-2.553-7.088-6.237-13.183-11.055-18.142c-4.822-4.96-10.634-8.787-17.433-11.622
		C203.277,77.418,195.62,76,186.976,76c-8.79,0-16.583,1.418-23.387,4.111c-6.945,2.834-12.758,6.662-17.716,11.764
		c-4.817,4.959-8.502,11.054-11.196,18.283c-2.553,7.085-3.826,15.024-3.826,23.527s1.273,16.3,3.685,23.527
		c2.547,7.087,6.232,13.182,11.054,18.284c4.817,4.959,10.63,8.929,17.575,11.763c7.086,2.835,14.88,4.253,23.812,4.253
		c8.501,0,16.159-1.418,22.958-4.111C216.879,184.567,222.691,180.74,227.513,175.638L227.513,175.638z M187.118,100.662
		c17.574,0,26.506,11.054,26.506,33.165c0,22.253-8.932,33.449-26.506,33.449c-17.716,0-26.505-11.196-26.505-33.449
		C160.613,111.716,169.402,100.662,187.118,100.662L187.118,100.662z M196.044,315.527L341.178,98.395
		c4.393-6.662,2.553-15.591-3.967-19.986c-6.662-4.393-15.594-2.551-19.986,3.969L172.238,299.512
		c-4.54,6.662-2.694,15.589,3.826,19.986C182.726,323.891,191.652,322.189,196.044,315.527L196.044,315.527z M324.878,297.243
		c-17.575,0-26.359-11.054-26.359-33.163c0-22.253,8.784-33.449,26.359-33.449c17.72,0,26.505,11.196,26.505,33.449
		C351.383,286.189,342.598,297.243,324.878,297.243L324.878,297.243z" clip-rule="evenodd" class="color747869 svgShape"></path></svg>