<svg xmlns="http://www.w3.org/2000/svg" viewBox="0 0 32 32" id="User"><defs><linearGradient id="a" x1="9.973" x2="25.477" y1="33.089" y2="6.236" gradientUnits="userSpaceOnUse"><stop offset="0" stop-color="#4fbbbb" class="stopColor4c46c8 svgShape"></stop><stop offset="1" stop-color="#5cd6ff" class="stopColor87bfff svgShape"></stop></linearGradient></defs><path fill="url(#a)" d="M29.446 26.135a14.05 14.05 0 0 0-9.1-9.429 8 8 0 1 0-8.7 0 14.053 14.053 0 0 0-9.1 9.429 3.027 3.027 0 0 0 .493 2.678A2.96 2.96 0 0 0 5.43 30h21.14a2.96 2.96 0 0 0 2.384-1.187 3.023 3.023 0 0 0 .492-2.678ZM10 10a6 6 0 1 1 6 6 6.006 6.006 0 0 1-6-6Zm17.357 17.608a.963.963 0 0 1-.787.392H5.43a.963.963 0 0 1-.787-.392 1.04 1.04 0 0 1-.167-.922 11.987 11.987 0 0 1 23.047 0 1.037 1.037 0 0 1-.166.922Z" data-name="Layer 2"></path></svg>